<?xml version="1.0" encoding="UTF-8" standalone="no"?>
<!-- Created with Inkscape (http://www.inkscape.org/) -->

<svg
   version="1.1"
   id="svg27889"
   xml:space="preserve"
   width="957.07428"
   height="669.43628"
   viewBox="0 0 957.07428 669.43628"
   sodipodi:docname="favicon.svg"
   inkscape:version="1.1 (c68e22c387, 2021-05-23)"
   xmlns:inkscape="http://www.inkscape.org/namespaces/inkscape"
   xmlns:sodipodi="http://sodipodi.sourceforge.net/DTD/sodipodi-0.dtd"
   xmlns="http://www.w3.org/2000/svg"
   xmlns:svg="http://www.w3.org/2000/svg"
   xmlns:rdf="http://www.w3.org/1999/02/22-rdf-syntax-ns#"
   xmlns:cc="http://creativecommons.org/ns#"
   xmlns:dc="http://purl.org/dc/elements/1.1/"><metadata
     id="metadata27895"><rdf:RDF><cc:Work
         rdf:about=""><dc:format>image/svg+xml</dc:format><dc:type
           rdf:resource="http://purl.org/dc/dcmitype/StillImage" /></cc:Work></rdf:RDF></metadata><defs
     id="defs27893"><clipPath
       clipPathUnits="userSpaceOnUse"
       id="clipPath27905"><path
         d="M 0,600 H 600 V 0 H 0 Z"
         id="path27903"
         inkscape:connector-curvature="0" /></clipPath><clipPath
       clipPathUnits="userSpaceOnUse"
       id="clipPath2549"><rect
         style="fill:none;fill-opacity:1;fill-rule:evenodd;stroke:#000000;stroke-width:0.119966;stroke-opacity:1;-inkscape-stroke:none;paint-order:stroke markers fill;stop-color:#000000"
         id="rect2551"
         width="108.20921"
         height="73.822769"
         x="2.4351327"
         y="20.542669" /></clipPath></defs><sodipodi:namedview
     pagecolor="#ffffff"
     bordercolor="#666666"
     borderopacity="1"
     objecttolerance="10"
     gridtolerance="10"
     guidetolerance="10"
     inkscape:pageopacity="0"
     inkscape:pageshadow="2"
     inkscape:window-width="1920"
     inkscape:window-height="1017"
     id="namedview27891"
     showgrid="false"
     inkscape:zoom="0.70808733"
     inkscape:cx="302.92874"
     inkscape:cy="333.99835"
     inkscape:window-x="-8"
     inkscape:window-y="-8"
     inkscape:window-maximized="1"
     inkscape:current-layer="g27897"
     inkscape:pagecheckerboard="0" /><g
     id="g27897"
     inkscape:groupmode="layer"
     inkscape:label="cobra-snake-publicdomainvectors.org"
     transform="matrix(1.3333333,0,0,-1.3333333,11.080673,648.19631)"><g
       id="g2891"><rect
         style="fill:#000000;fill-opacity:1;fill-rule:evenodd;stroke:#000000;stroke-width:0.804688;stroke-opacity:1;-inkscape-stroke:none;paint-order:stroke markers fill;stop-color:#000000"
         id="rect1932-1"
         width="717.00104"
         height="501.27255"
         x="-7.9081607"
         y="-485.7449"
         transform="scale(1,-1)" /><g
         id="g1828"
         transform="matrix(6.489268,0,0,-6.489268,-16.850596,603.36219)"
         clip-path="url(#clipPath2549)"
         style="fill:#ffffff;fill-opacity:1"><g
           id="g1774"
           style="fill:#ffffff;fill-opacity:1">
	<path
   d="m 114.822,83.667 c 0.005,-0.003 0.011,-0.005 0.016,-0.008 l -0.242,-0.438 -0.174,-0.469 c -2.889,1.074 -5.479,1.014 -7.918,-0.184 C 98.707,78.739 94.147,64.089 89.735,49.922 85.468,36.22 81.44,23.276 74.652,21.434 c -2.775,-0.755 -5.739,0.351 -9.064,3.382 -4.777,4.55 -9.23,14.32 -13.539,23.769 C 46.907,59.866 41.59,71.53 36.476,72.012 33.03,72.356 29.481,67.742 25.736,62.878 19.475,54.748 11.682,44.63 0.076,51.933 l 0.229,0.365 c -0.084,0.058 -0.167,0.105 -0.251,0.165 l 0.24,0.339 c -0.087,0.066 -0.173,0.121 -0.26,0.189 l 0.249,0.316 C 0.194,53.381 0.105,53.443 0.016,53.52 L 0.27,53.813 C 0.18,53.895 0.09,53.963 0,54.048 l 0.686,0.729 c 2.635,-2.484 5.091,-3.456 7.498,-2.976 6.335,1.265 11.459,12.705 15.979,22.798 4.567,10.196 8.524,19.032 13.547,19.032 0.11,0 0.221,-0.004 0.333,-0.013 7.147,-0.553 9.792,-10.111 12.855,-21.179 2.173,-7.854 4.636,-16.753 9.091,-23.108 3.963,-5.409 7.5,-7.907 10.817,-7.629 5.937,0.494 10.636,9.831 15.611,19.717 5.268,10.469 10.717,21.292 18.522,23.691 3.108,0.956 6.427,0.473 9.86,-1.432 0.002,0 0.004,-10e-4 0.006,-0.002 v 0 c 0.006,-0.003 0.012,-0.005 0.017,-0.009 z M 24.531,69.191 c 4.388,7.786 8.159,14.507 12.775,14.122 6.434,-0.546 10.442,-11.369 14.686,-22.826 3.227,-8.712 6.564,-17.721 11.146,-23.053 3.447,-4.012 6.49,-5.736 9.291,-5.266 6.006,1.004 10.359,11.948 14.968,23.534 2.541,6.386 5.128,12.874 8.129,18.122 C 92.718,69.22 90.201,63.614 87.726,58.095 82.805,47.113 78.154,36.74 71.658,35.95 68.252,35.532 64.685,37.763 60.778,42.765 56.111,48.737 53.24,57.589 50.465,66.15 46.992,76.859 43.713,86.975 37.594,87.47 33.394,87.828 29.426,79.88 25.239,71.485 23.48,67.957 21.697,64.388 19.813,61.211 c 1.656,2.557 3.221,5.326 4.718,7.98 z m -6.25,-11.914 c 2.314,2.75 4.445,6.018 6.449,9.103 4.243,6.528 7.916,12.162 12.208,11.781 6.056,-0.541 10.657,-11.662 15.528,-23.435 3.739,-9.035 7.604,-18.378 12.241,-23.236 3.227,-3.38 6.053,-4.754 8.648,-4.196 6.096,1.309 10.256,13.104 14.66,25.591 2.211,6.268 4.457,12.633 7.051,18.011 C 92.649,66.197 90.47,60.726 88.326,55.333 83.611,43.478 79.157,32.28 72.596,31.183 69.42,30.654 66.075,32.483 62.379,36.784 57.68,42.251 54.312,51.346 51.054,60.141 46.924,71.291 43.022,81.826 37.221,82.318 33.278,82.651 29.447,75.877 25.402,68.702 23.207,64.808 20.868,60.667 18.281,57.277 Z m 6.663,6.212 c 4.088,5.309 7.611,9.898 11.626,9.52 5.69,-0.536 10.887,-11.937 16.389,-24.006 4.268,-9.362 8.681,-19.042 13.31,-23.452 3.044,-2.775 5.701,-3.804 8.121,-3.149 6.258,1.698 10.207,14.387 14.391,27.822 2.001,6.428 4.034,12.95 6.4,18.56 C 92.94,63.832 90.935,58.154 88.958,52.553 84.457,39.794 80.206,27.743 73.563,26.317 70.602,25.682 67.467,27.148 63.982,30.801 59.215,35.794 55.314,45.225 51.541,54.345 46.789,65.829 42.3,76.678 36.848,77.164 33.154,77.505 29.465,71.831 25.567,65.833 23,61.885 20.234,57.639 17.096,54.497 c 2.849,2.505 5.412,5.828 7.848,8.992 z M 70.889,40.706 c -3.684,-0.308 -7.521,2.321 -11.713,8.043 -4.56,6.504 -7.046,15.493 -9.242,23.424 -2.962,10.705 -5.521,19.95 -11.968,20.448 -4.478,0.347 -8.564,-8.773 -12.89,-18.432 -1.322,-2.952 -2.657,-5.93 -4.038,-8.73 1.141,2.136 2.241,4.336 3.305,6.472 4.421,8.864 8.252,16.551 12.978,16.55 0.117,0 0.235,-0.005 0.354,-0.015 6.783,-0.549 10.008,-10.493 13.741,-22.009 2.749,-8.478 5.592,-17.245 10.15,-23.077 3.674,-4.702 6.941,-6.806 9.972,-6.438 5.935,0.722 10.474,10.844 15.277,21.561 2.743,6.119 5.538,12.334 8.753,17.243 C 92.608,71.487 89.935,66.186 87.31,60.971 82.205,50.827 77.383,41.246 70.889,40.706 Z"
   id="path1772"
   style="fill:#ffffff;fill-opacity:1" />
</g><g
           id="g1776"
           style="fill:#ffffff;fill-opacity:1">
</g><g
           id="g1778"
           style="fill:#ffffff;fill-opacity:1">
</g><g
           id="g1780"
           style="fill:#ffffff;fill-opacity:1">
</g><g
           id="g1782"
           style="fill:#ffffff;fill-opacity:1">
</g><g
           id="g1784"
           style="fill:#ffffff;fill-opacity:1">
</g><g
           id="g1786"
           style="fill:#ffffff;fill-opacity:1">
</g><g
           id="g1788"
           style="fill:#ffffff;fill-opacity:1">
</g><g
           id="g1790"
           style="fill:#ffffff;fill-opacity:1">
</g><g
           id="g1792"
           style="fill:#ffffff;fill-opacity:1">
</g><g
           id="g1794"
           style="fill:#ffffff;fill-opacity:1">
</g><g
           id="g1796"
           style="fill:#ffffff;fill-opacity:1">
</g><g
           id="g1798"
           style="fill:#ffffff;fill-opacity:1">
</g><g
           id="g1800"
           style="fill:#ffffff;fill-opacity:1">
</g><g
           id="g1802"
           style="fill:#ffffff;fill-opacity:1">
</g><g
           id="g1804"
           style="fill:#ffffff;fill-opacity:1">
</g></g></g></g></svg>
