<?xml version="1.0" encoding="UTF-8" standalone="no"?>
<svg
   id="logosandtypes_com"
   viewBox="0 0 150 150"
   version="1.1"
   sodipodi:docname="favicon.svg"
   inkscape:version="1.1 (c68e22c387, 2021-05-23)"
   xmlns:inkscape="http://www.inkscape.org/namespaces/inkscape"
   xmlns:sodipodi="http://sodipodi.sourceforge.net/DTD/sodipodi-0.dtd"
   xmlns="http://www.w3.org/2000/svg"
   xmlns:svg="http://www.w3.org/2000/svg">
  <defs
     id="defs9" />
  <sodipodi:namedview
     id="namedview7"
     pagecolor="#ffffff"
     bordercolor="#666666"
     borderopacity="1.0"
     inkscape:pageshadow="2"
     inkscape:pageopacity="0.0"
     inkscape:pagecheckerboard="0"
     showgrid="false"
     inkscape:zoom="5.5466667"
     inkscape:cx="74.909856"
     inkscape:cy="75.090144"
     inkscape:window-width="1920"
     inkscape:window-height="1017"
     inkscape:window-x="-8"
     inkscape:window-y="-8"
     inkscape:window-maximized="1"
     inkscape:current-layer="logosandtypes_com" />
  <path
     d="M0 0h150v150H0V0z"
     fill="none"
     id="path2" />
  <path
     d="M20.4 115.3c0-12.4 10-22.4 22.4-22.5 7.5 0 14.5 3.7 18.7 9.9l31.4-16c-.6-1.9-.9-3.8-1-5.8 0-2 .4-4 1-5.9L64.8 60.8c-2.9 3.8-7.4 6-12.2 5.9C44 66.7 37 59.8 37 51.2s6.9-15.6 15.5-15.6c4.8 0 9.3 2.2 12.2 5.9l29.4-15c-.2-1-.3-2-.3-3-.1-7.1 5.5-13 12.7-13.2s13 5.5 13.2 12.7v.5c0 7.1-5.8 12.9-12.9 12.9-3.9 0-7.6-1.8-10.1-4.8l-29.2 15c.5 1.5.7 3 .7 4.6 0 1.6-.2 3.1-.7 4.6l28 14.2c6-8.4 17.8-10.4 26.2-4.4 8.4 6 10.4 17.8 4.4 26.2-6 8.4-17.8 10.4-26.2 4.4-1.7-1.2-3.2-2.7-4.4-4.4l-31.5 16c.8 2.4 1.3 4.9 1.3 7.5 0 12.4-10.1 22.5-22.5 22.5s-22.4-10.1-22.4-22.5z"
     fill="#d8001c"
     id="path4"
     style="fill:#ffff00;fill-opacity:1" />
</svg>
