<?xml version="1.0" encoding="UTF-8" standalone="no"?>
<!-- Created with Inkscape (http://www.inkscape.org/) -->

<svg
   width="211.66667mm"
   height="203.19536mm"
   viewBox="0 0 211.66667 203.19536"
   version="1.1"
   id="svg5"
   inkscape:version="1.1 (c68e22c387, 2021-05-23)"
   sodipodi:docname="icon.svg"
   xmlns:inkscape="http://www.inkscape.org/namespaces/inkscape"
   xmlns:sodipodi="http://sodipodi.sourceforge.net/DTD/sodipodi-0.dtd"
   xmlns="http://www.w3.org/2000/svg"
   xmlns:svg="http://www.w3.org/2000/svg">
  <sodipodi:namedview
     id="namedview7"
     pagecolor="#ffffff"
     bordercolor="#666666"
     borderopacity="1.0"
     inkscape:pageshadow="2"
     inkscape:pageopacity="0.0"
     inkscape:pagecheckerboard="0"
     inkscape:document-units="mm"
     showgrid="false"
     inkscape:zoom="0.26205012"
     inkscape:cx="1482.5408"
     inkscape:cy="612.47825"
     inkscape:window-width="1920"
     inkscape:window-height="1017"
     inkscape:window-x="-8"
     inkscape:window-y="-8"
     inkscape:window-maximized="1"
     inkscape:current-layer="layer1" />
  <defs
     id="defs2">
	
	
	
	
	
	
	
</defs>
  <g
     inkscape:label="Layer 1"
     inkscape:groupmode="layer"
     id="layer1"
     transform="translate(-45.522434,-6.9215456)">
    <path
       style="fill:#9fbe5b;stroke-width:0.48613"
       d="m 153.4155,11.187333 1.03546,-1.035942 c -0.8483,-0.1730625 -1.70194,-0.3344575 -2.55753,-0.4861299 z"
       id="path928" />
    <circle
       style="fill:#9fbe5b;stroke-width:0.48613"
       cx="155.5919"
       cy="108.51971"
       r="101.5972"
       id="circle930" />
    <path
       style="fill:#ffffff;stroke-width:0.48613"
       d="m 57.140448,133.69637 c 1.7559,6.88797 4.220577,13.49155 7.302639,19.7354 H 246.7412 c 3.08255,-6.24385 5.54626,-12.84743 7.30264,-19.7354 z"
       id="path932" />
    <path
       style="fill:#ffffff;stroke-width:0.48613"
       d="m 208.75795,21.932256 4.29642,4.296899 -10.93938,10.939861 -10.93937,-10.939375 9.01478,-9.014787 c -1.1949,-0.584328 -2.40342,-1.144835 -3.62263,-1.683467 l -8.04545,8.045445 -10.93889,-10.939861 2.68976,-2.6897547 c -1.43019,-0.356333 -2.8706,-0.6883596 -4.32315,-0.9834402 l -1.0199,1.020386 -1.49874,-1.4987376 c -2.04661,-0.3626527 -4.11509,-0.6577333 -6.20204,-0.8954507 l 5.04748,5.0474842 -6.25746,6.256974 V 7.4509407 c -3.4277,-0.3495272 -6.90644,-0.5293951 -10.42699,-0.5293951 -7.50584,0 -14.8182,0.821559 -21.86028,2.3655066 V 75.163448 c 0,8.916103 7.22826,16.143878 16.14388,16.143878 7.56758,0 13.90088,-5.214712 15.649,-12.242202 l 9.88642,-9.886904 7.02311,7.022142 c 0.36654,0.366542 0.84635,0.549813 1.32665,0.549813 0.47981,0 0.9601,-0.183271 1.32665,-0.549813 0.73308,-0.732597 0.73308,-1.920698 0,-2.652323 l -7.02312,-7.022628 10.45811,-10.45762 8.4324,8.431432 c 0.36606,0.366541 0.84635,0.549812 1.32665,0.549812 0.47981,0 0.95962,-0.183271 1.32665,-0.549812 0.7326,-0.732598 0.7326,-1.920698 0,-2.65281 l -8.43192,-8.431918 10.93937,-10.939374 7.41445,7.413962 c 0.36654,0.366542 0.84635,0.549327 1.32665,0.549327 0.4803,0 0.96011,-0.182785 1.32665,-0.549327 0.73308,-0.732597 0.73308,-1.920698 0,-2.652809 l -7.41396,-7.413963 10.93937,-10.93986 4.42038,4.41989 c 0.36654,0.366542 0.84635,0.549813 1.32664,0.549813 0.4803,0 0.96011,-0.183271 1.32665,-0.549813 0.1823,-0.182785 0.31988,-0.393279 0.41127,-0.618843 -4.47628,-3.991124 -9.30404,-7.592858 -14.43611,-10.751242 z m -42.73857,2.268767 8.91076,-8.911242 10.93937,10.93986 -10.93937,10.939375 -8.91076,-8.910756 z m 0,9.363342 6.25844,6.257946 -6.25844,6.256975 z m 0,39.700747 v -13.47843 l 6.73922,6.739215 z m 9.39154,-9.39251 -9.39202,-9.392511 v -3.094215 l 8.91075,-8.910755 10.93938,10.939374 z m 13.1114,-13.110916 -10.93889,-10.939375 10.93889,-10.93986 10.93938,10.93986 z"
       id="path934" />
    <ellipse
       style="opacity:0.29;fill:#697d3c;stroke-width:0.48613"
       cx="141.05614"
       cy="184.36031"
       rx="22.159733"
       ry="4.8374758"
       id="ellipse936" />
    <ellipse
       style="fill:#ffffff;fill-opacity:1;stroke-width:0.227384;stroke:#b7b7b7;stroke-opacity:1"
       cx="102.95986"
       cy="117.66721"
       id="circle987"
       rx="57.437428"
       ry="57.391491" />
    <path
       style="opacity:0.46;fill:#68696a;stroke-width:0.48613"
       d="m 57.284828,152.42451 c 0,0 14.882858,14.67771 24.510169,18.4705 6.54136,2.59642 13.664131,4.16467 21.121363,4.16467 7.67695,0 15.00244,-1.52645 21.70082,-4.27405 l 1.38158,-0.596 c 0.10014,-0.0433 0.20223,-0.0826 0.30237,-0.12639 l -0.001,-0.003 c 13.3987,-6.00273 24.25543,-16.84926 29.86294,-30.45359 0.0243,-0.0588 0.0583,-0.14244 0.0826,-0.20175 2.72719,-6.63518 4.15203,-13.70837 4.15203,-21.3615 0,-6.17385 -0.98052,-12.11776 -2.78698,-17.68977 l -0.17355,-0.385019 c -4.36877,-13.40591 -13.4905,-24.686061 -25.4313,-31.739316 22.75135,25.991892 21.95896,58.566465 4.76601,79.180795 -15.74622,18.87933 -49.09909,21.87583 -79.487052,5.01442 z"
       id="path960" />
    <rect
       x="72.040672"
       y="83.404747"
       style="fill:#324a5e;stroke-width:0.314894"
       width="4.3472714"
       height="61.411186"
       id="rect991" />
    <path
       style="fill:#4c8bdb;stroke-width:0.314894;fill-opacity:1"
       d="M 66.055305,132.53999 H 82.37333 c 0.189012,0 0.34652,-0.15739 0.34652,-0.34625 V 96.026931 c 0,-0.188861 -0.157508,-0.346246 -0.34652,-0.346246 H 66.055305 c -0.189012,0 -0.346519,0.157385 -0.346519,0.346246 v 36.166809 c 0,0.18886 0.126007,0.34625 0.346519,0.34625 z"
       id="path993" />
    <rect
       x="102.72359"
       y="95.240005"
       style="fill:#324a5e;stroke-width:0.314894"
       width="4.3472714"
       height="61.411186"
       id="rect995" />
    <path
       style="fill:#ffd05b;stroke-width:0.314894"
       d="m 96.738227,144.37525 h 16.318023 c 0.189,0 0.34653,-0.15738 0.34653,-0.34624 v -36.16682 c 0,-0.18885 -0.15753,-0.34624 -0.34653,-0.34624 H 96.738227 c -0.18902,0 -0.34651,0.15739 -0.34651,0.34624 v 36.16682 c 0,0.18886 0.15749,0.34624 0.34651,0.34624 z"
       id="path997" />
    <rect
       x="129.53178"
       y="78.683235"
       style="fill:#324a5e;stroke-width:0.314894"
       width="4.3472714"
       height="61.411186"
       id="rect999" />
    <path
       style="fill:#fe7164;stroke-width:0.314894;fill-opacity:1"
       d="m 123.54641,127.81847 h 16.31802 c 0.18901,0 0.34651,-0.15739 0.34651,-0.34624 V 91.305414 c 0,-0.188861 -0.1575,-0.346246 -0.34651,-0.346246 h -16.31802 c -0.18902,0 -0.34652,0.157385 -0.34652,0.346246 v 36.166816 c 0,0.18885 0.1575,0.34624 0.34652,0.34624 z"
       id="path1001" />
  </g>
</svg>
